<svg xmlns="http://www.w3.org/2000/svg" width="178" height="40" viewBox="0 0 178 40">
    <g fill="#000" fill-rule="evenodd">
        <path d="M25.333 17.614L19.334 7.51a2 2 0 0 0-3.44 0L6.71 22.981a2 2 0 0 0 1.72 3.021h18.37a2 2 0 0 0 1.72-3.02l-2.687-4.528c-4.92.057-7.379 2.573-7.379 7.548h-.839v-6.388a2 2 0 0 1 2-2h5.72zM18.676.581l15.557 9.028a2 2 0 0 1 .996 1.73v17.699a2 2 0 0 1-1.005 1.735l-15.557 8.92a2 2 0 0 1-1.985.003L1.01 30.772A2 2 0 0 1 0 29.034V11.342A2 2 0 0 1 1.001 9.61L16.673.578a2 2 0 0 1 2.003.003zM63.977 19.926v.222a13.977 13.977 0 0 1-.206 2.04 16.554 16.554 0 0 1-.51 2.109c-.218.703-.48 1.398-.784 2.086a17.785 17.785 0 0 1-1.026 1.974 16.678 16.678 0 0 1-1.224 1.77c-.438.55-.899 1.037-1.383 1.459l-1.746-1.008c.273-.46.521-.963.744-1.506.222-.543.424-1.111.603-1.705.18-.594.334-1.203.463-1.828a29.07 29.07 0 0 0 .322-1.863c.086-.617.15-1.225.194-1.822.043-.598.064-1.166.064-1.706 0-.421-.002-.9-.006-1.435a16.72 16.72 0 0 0-.093-1.635 11.647 11.647 0 0 0-.287-1.623 4.83 4.83 0 0 0-.592-1.412 3.07 3.07 0 0 0-1.008-.996c-.41-.25-.92-.375-1.53-.375-.538 0-1.001.092-1.388.275-.387.184-.715.43-.984.739-.27.308-.485.666-.645 1.072-.16.406-.285.834-.375 1.283-.09.45-.148.902-.176 1.36-.027.456-.04.888-.04 1.294v3.27h5.05v1.933h-5.05V28H47.71v-8.578c0-1.227.195-2.367.586-3.422a8.235 8.235 0 0 1 1.658-2.748 7.628 7.628 0 0 1 2.578-1.828c1.004-.442 2.123-.662 3.358-.662a7.532 7.532 0 0 1 4.347 1.342 7.968 7.968 0 0 1 1.612 1.488 8.772 8.772 0 0 1 1.183 1.88c.317.68.557 1.4.72 2.157.165.758.24 1.523.224 2.297zM73.152 28H68.5V11.125h8.297c.781 0 1.535.092 2.262.275.726.184 1.369.473 1.927.868a4.325 4.325 0 0 1 1.336 1.529c.332.625.498 1.383.498 2.273 0 .696-.146 1.35-.44 1.963a5.783 5.783 0 0 1-1.171 1.64 6.565 6.565 0 0 1-1.682 1.196 6.54 6.54 0 0 1-1.968.627c.304.516.623 1.004.955 1.465.332.46.668.893 1.007 1.295.34.402.678.773 1.014 1.113.336.34.656.65.961.932.719.656 1.43 1.222 2.133 1.699h-5.8a9.646 9.646 0 0 1-1.337-1.605c-.36-.532-.72-1.19-1.084-1.975-.363-.785-.642-1.693-.838-2.725h-1.418V28zm4.946-11.93c0-1.133-.276-1.965-.827-2.496-.55-.531-1.376-.797-2.478-.797h-1.64v7.325h1.64c.586 0 1.088-.112 1.506-.334a2.94 2.94 0 0 0 1.025-.891c.266-.371.461-.799.586-1.283.125-.485.188-.992.188-1.524zM91.973 28H87.32V11.125h4.653v8.04a32.161 32.161 0 0 0 4.025-3.669 23.595 23.595 0 0 0 3.217-4.383h3.176a25.973 25.973 0 0 1-2.848 3.961 30.645 30.645 0 0 1-3.492 3.41L102.789 28h-4.852l-5.074-7.172c-.148.102-.295.2-.44.293-.144.094-.294.188-.45.281V28zm18.843 0h-4.652V11.125h4.652V28zm9.973 0h-4.652V11.125h4.652v7.371h6.164v-7.371h4.652V28h-4.652v-7.36h-6.164V28zm20.79 0h-4.653V11.125h4.652V28zm14.062 0h-4.254l-6.305-16.875h4.746l4.676 13.582 4.23-13.582h2.883L155.641 28zm21.624 0h-12.12V11.125h12.12v2.156h-7.467v5.215h5.767v2.145h-5.767v5.203h7.467V28zM125.414 1.343L131.071 7l-.707.707c-4.243-4.243-8.485-4.243-12.728 0L116.929 7l5.657-5.657a2 2 0 0 1 2.828 0z"/>
    </g>
</svg>
