<svg xmlns="http://www.w3.org/2000/svg" width="24" height="30" viewBox="0 0 24 30">
    <g fill="none" fill-rule="evenodd">
        <path fill="#00D563" fill-rule="nonzero" d="M21.333 2.667H15.76C15.2 1.12 13.733 0 12 0c-1.733 0-3.2 1.12-3.76 2.667H2.667A2.675 2.675 0 0 0 0 5.333v21.334c0 1.466 1.2 2.666 2.667 2.666h18.666c1.467 0 2.667-1.2 2.667-2.666V5.333c0-1.466-1.2-2.666-2.667-2.666zm-9.333 0c.733 0 1.333.6 1.333 1.333s-.6 1.333-1.333 1.333-1.333-.6-1.333-1.333.6-1.333 1.333-1.333zm9.333 24H2.667V5.333h2.666v4h13.334v-4h2.666v21.334z"/>
        <path fill="#00D563" d="M16.06 15l-4.88 4.88-2.12-2.12L8 18.82 11.18 22l5.94-5.94z"/>
        <path d="M-4 0h32v32H-4z"/>
    </g>
</svg>
