<svg xmlns="http://www.w3.org/2000/svg" width="28" height="28" viewBox="0 0 28 28">
    <g fill="none" fill-rule="evenodd">
        <path fill="#FF7701" fill-rule="nonzero" d="M14 .667C6.64.667.667 6.64.667 14S6.64 27.333 14 27.333 27.333 21.36 27.333 14 21.36.667 14 .667zm0 4c2.213 0 4 1.786 4 4 0 2.213-1.787 4-4 4s-4-1.787-4-4c0-2.214 1.787-4 4-4zM14 23.6a9.6 9.6 0 0 1-8-4.293c.04-2.654 5.333-4.107 8-4.107 2.653 0 7.96 1.453 8 4.107a9.6 9.6 0 0 1-8 4.293z"/>
        <path d="M-2-2h32v32H-2z"/>
    </g>
</svg>
