<svg xmlns="http://www.w3.org/2000/svg" width="67" height="67" viewBox="0 0 67 67">
    <g fill="none" fill-rule="nonzero">
        <path fill="#FF7701" d="M14.305 33.78v18.915H33.22l-3.944-3.945H18.25V37.724z"/>
        <path fill="#FF7701" d="M66.186 63.315l-5.755-5.81v5.23H4.281V54.45h4.012v-3.195H4.282V37.978h4.01v-3.194h-4.01V22.006h4.01V18.81h-4.01V7.651l31.965 31.645v-5.63L3.7 1.42A2.012 2.012 0 0 0 1.508.983 1.996 1.996 0 0 0 .27 2.84v61.893c0 1.103.898 1.997 2.006 1.997h62.486a2.006 2.006 0 0 0 1.863-1.231 1.99 1.99 0 0 0-.44-2.183z"/>
        <path fill="#FF7701" d="M43.898 58.797h7.933c2.19 0 3.966-1.792 3.966-4.002V16.177l-4.561-8.464a3.96 3.96 0 0 0-3.49-2 3.962 3.962 0 0 0-3.49 2.16l-4.324 8.344v38.578c0 2.21 1.776 4.002 3.966 4.002zm0-41.62l3.847-7.543 4.086 7.564V46.79h-7.933V17.178zm0 32.876h7.933v4.882h-7.933v-4.882z"/>
        <path fill="none" d="M-4-1h72v72H-4z"/>
    </g>
</svg>
