<svg xmlns="http://www.w3.org/2000/svg" width="64" height="48" viewBox="0 0 64 48">
    <g fill="none" fill-rule="nonzero">
        <path fill="#FF7701" d="M56 12h-8V2a2 2 0 0 0-2-2H2a2 2 0 0 0-2 2v36a2 2 0 0 0 2 2h2V4h40v23.4a12.9 12.9 0 0 1 3.12-.4H48V16h8a4 4 0 0 1 4 4v2h-8v4h8v10h-4.8a9.08 9.08 0 0 0-16.68 0H24.86a9 9 0 0 0-8.34-5.52A8.76 8.76 0 1 0 25.44 40H38a8.98 8.98 0 0 0 17.84 0H62a2 2 0 0 0 2-2V20a8 8 0 0 0-8-8zM16.52 44a4.76 4.76 0 1 1 0-9.5 4.76 4.76 0 1 1 0 9.5zm30.34 0a4.76 4.76 0 1 1 5-4.74 4.88 4.88 0 0 1-5 4.74z"/>
        <path fill="none" d="M-4-12h72v72H-4z"/>
    </g>
</svg>
